<svg width="107" height="30" viewBox="0 0 107 30" fill="none" xmlns="http://www.w3.org/2000/svg">
<path d="M11.6826 12.3496C11.4234 10.5547 10.4515 9.92621 8.24844 9.92621C6.42121 9.92621 5.37153 10.3733 5.37153 11.4554C5.37153 12.5375 6.38234 12.9845 8.35859 13.5483C10.4515 14.1444 12.4277 14.5591 13.8468 15.1163C15.7906 15.9003 16.8727 17.1703 16.8727 19.5613C16.8727 23.3712 14.0735 25.6455 8.84456 25.6455C3.20737 25.6391 0.0777543 22.9889 0 19.2502H5.0022C5.0022 20.9673 6.46009 21.9781 8.81216 21.9781C10.5292 21.9781 12.0584 21.4533 12.0584 20.0732C12.0584 18.7643 10.6783 18.3561 9.11022 17.9803C6.013 17.2351 4.29593 16.7103 2.98706 15.8874C1.26999 14.8053 0.673871 13.3863 0.673871 11.7405C0.673871 8.64326 2.79916 6.29119 8.40395 6.29119C13.7042 6.29119 16.0951 8.38408 16.3543 12.3366H11.6891L11.6826 12.3496Z" fill="black" style="fill:black;fill-opacity:1;"/>
<path d="M18.6286 15.9457C18.6286 10.1206 22.2507 6.27822 28.0758 6.27822C33.9009 6.27822 37.4063 10.0882 37.4063 15.9457C37.4063 21.8032 33.7843 25.6131 28.0758 25.6131C22.3673 25.6131 18.6286 21.6541 18.6286 15.9457ZM32.5143 15.9457C32.5143 12.2135 31.024 10.3862 28.0693 10.3862C25.1147 10.3862 23.6244 12.2135 23.6244 15.9457C23.6244 19.6779 25.1147 21.544 28.0693 21.544C31.024 21.544 32.5143 19.6779 32.5143 15.9457Z" fill="black" style="fill:black;fill-opacity:1;"/>
<path d="M40.6526 25.2829V10.3476H37.9247V6.91344H40.6526C40.6526 2.43609 43.2314 0.19417 48.4539 0.19417V4.11428C45.9917 4.11428 45.428 4.78816 45.428 6.91344H48.5641V10.3476H45.428V25.2829H40.6526Z" fill="black" style="fill:black;fill-opacity:1;"/>
<path d="M62.6052 25.1532L58.5749 16.9047L56.2229 19.3281V25.1532H51.3308V0.0644531H56.2229V13.7622L62.2683 6.78372H68.2035L62.0415 13.5419L68.0545 25.1532H62.6052Z" fill="black" style="fill:black;fill-opacity:1;"/>
<path d="M80.9358 25.1531C80.7868 24.706 80.6766 24.071 80.6377 23.5073C79.4779 24.7773 77.5405 25.6326 75.0783 25.6326C70.899 25.6326 68.9551 23.5786 68.9551 20.5915C68.9551 15.2913 72.4994 14.6951 77.3915 14.0213C79.8213 13.6843 80.4887 13.1984 80.4887 11.9284C80.4887 10.7361 79.2965 10.0234 77.3915 10.0234C75.1884 10.0234 74.2943 11.1055 74.0675 12.7513H69.5513C69.629 8.94132 71.7154 6.29119 77.6118 6.29119C83.5082 6.29119 85.452 8.90244 85.452 13.5353V25.1466H80.9358V25.1531ZM80.5989 16.153C80.1129 16.639 79.2576 16.8982 77.4628 17.2351C74.7025 17.76 73.8018 18.544 73.8018 20.112C73.8018 21.4922 74.6247 22.166 76.1539 22.166C78.655 22.166 80.5211 20.3388 80.56 18.1746L80.5989 16.1595V16.153Z" fill="black" style="fill:black;fill-opacity:1;"/>
<path d="M106.53 25.1533H89.6572V29.9352H106.53V25.1533Z" fill="#FF7E08" style="fill:#FF7E08;fill:color(display-p3 1.0000 0.4941 0.0314);fill-opacity:1;"/>
</svg>
